<svg viewBox="0 0 301 81" xmlns="http://www.w3.org/2000/svg" xmlns:xlink="http://www.w3.org/1999/xlink"><defs><path id="a" d="M.857.877h280v60h-280z"/><mask id="b" x="0" y="0" width="280" height="60" fill="#fff"><use xlink:href="#a"/></mask><path d="M279.857 0h.089l20.05 20h-20V10h-.139V0zm.14 20h19.999v60H20v-.05L0 60h279.996V20z" id="c"/></defs><g fill="none" fill-rule="evenodd"><use stroke="#0021FF" mask="url(#b)" stroke-width="8" fill="#FFF" xlink:href="#a"/><g transform="translate(1 1)"><mask id="d" fill="#fff"><use xlink:href="#c"/></mask><path d="M-96.5-1.5L.032 95.032M-93.5-1.5L3.032 95.032M-90.5-1.5L6.032 95.032M-87.5-1.5L9.032 95.032M-84.5-1.5l96.532 96.532M-81.5-1.5l96.532 96.532M-78.5-1.5l96.532 96.532M-75.5-1.5l96.532 96.532M-72.5-1.5l96.532 96.532M-69.5-1.5l96.532 96.532M-66.5-1.5l96.532 96.532M-63.5-1.5l96.532 96.532M-60.5-1.5l96.532 96.532M-57.5-1.5l96.532 96.532M-54.5-1.5l96.532 96.532M-51.5-1.5l96.532 96.532M-48.5-1.5l96.532 96.532M-45.5-1.5l96.532 96.532M-42.5-1.5l96.532 96.532M-39.5-1.5l96.532 96.532M-36.5-1.5l96.532 96.532M-33.5-1.5l96.532 96.532M-30.5-1.5l96.532 96.532M-27.5-1.5l96.532 96.532M-24.5-1.5l96.532 96.532M-21.5-1.5l96.532 96.532M-18.5-1.5l96.532 96.532M-15.5-1.5l96.532 96.532M-12.5-1.5l96.532 96.532M-9.5-1.5l96.532 96.532M-6.5-1.5l96.532 96.532M-3.5-1.5l96.532 96.532M-.5-1.5l96.532 96.532M2.5-1.5l96.532 96.532M5.5-1.5l96.532 96.532M8.5-1.5l96.532 96.532M11.5-1.5l96.532 96.532M14.5-1.5l96.532 96.532M17.5-1.5l96.532 96.532M20.5-1.5l96.532 96.532M23.5-1.5l96.532 96.532M26.5-1.5l96.532 96.532M29.5-1.5l96.532 96.532M32.5-1.5l96.532 96.532M35.5-1.5l96.532 96.532M38.5-1.5l96.532 96.532M41.5-1.5l96.532 96.532M44.5-1.5l96.532 96.532M47.5-1.5l96.532 96.532M50.5-1.5l96.532 96.532M53.5-1.5l96.532 96.532M56.5-1.5l96.532 96.532M59.5-1.5l96.532 96.532M62.5-1.5l96.532 96.532M65.5-1.5l96.532 96.532M68.5-1.5l96.532 96.532M71.5-1.5l96.532 96.532M74.5-1.5l96.532 96.532M77.5-1.5l96.532 96.532M80.5-1.5l96.532 96.532M83.5-1.5l96.532 96.532M86.5-1.5l96.532 96.532M89.5-1.5l96.532 96.532M92.5-1.5l96.532 96.532M95.5-1.5l96.532 96.532M98.5-1.5l96.532 96.532M101.5-1.5l96.532 96.532M104.5-1.5l96.532 96.532M107.5-1.5l96.532 96.532M110.5-1.5l96.532 96.532M113.5-1.5l96.532 96.532M116.5-1.5l96.532 96.532M119.5-1.5l96.532 96.532M122.5-1.5l96.532 96.532M125.5-1.5l96.532 96.532M128.5-1.5l96.532 96.532M131.5-1.5l96.532 96.532M134.5-1.5l96.532 96.532M137.5-1.5l96.532 96.532M140.5-1.5l96.532 96.532M143.5-1.5l96.532 96.532M146.5-1.5l96.532 96.532M149.5-1.5l96.532 96.532M152.5-1.5l96.532 96.532M155.5-1.5l96.532 96.532M158.5-1.5l96.532 96.532M161.5-1.5l96.532 96.532M164.5-1.5l96.532 96.532M167.5-1.5l96.532 96.532M170.5-1.5l96.532 96.532M173.5-1.5l96.532 96.532M176.5-1.5l96.532 96.532M179.5-1.5l96.532 96.532M182.5-1.5l96.532 96.532M185.5-1.5l96.532 96.532M188.5-1.5l96.532 96.532M191.5-1.5l96.532 96.532M194.5-1.5l96.532 96.532M197.5-1.5l96.532 96.532M200.5-1.5l96.532 96.532M203.5-1.5l96.532 96.532M206.5-1.5l96.532 96.532M209.5-1.5l96.532 96.532M212.5-1.5l96.532 96.532M215.5-1.5l96.532 96.532M218.5-1.5l96.532 96.532M221.5-1.5l96.532 96.532M224.5-1.5l96.532 96.532M227.5-1.5l96.532 96.532M230.5-1.5l96.532 96.532M233.5-1.5l96.532 96.532M236.5-1.5l96.532 96.532M239.5-1.5l96.532 96.532M242.5-1.5l96.532 96.532M245.5-1.5l96.532 96.532M248.5-1.5l96.532 96.532M251.5-1.5l96.532 96.532M254.5-1.5l96.532 96.532M257.5-1.5l96.532 96.532M260.5-1.5l96.532 96.532M263.5-1.5l96.532 96.532M266.5-1.5l96.532 96.532M269.5-1.5l96.532 96.532M272.5-1.5l96.532 96.532M275.5-1.5l96.532 96.532M278.5-1.5l96.532 96.532M281.5-1.5l96.532 96.532M284.5-1.5l96.532 96.532" mask="url(#d)" stroke="#0021FF"/></g><path d="M36.499 37h3.1V24.801h.247L43.531 37h4.672V21.723H45.26v11.975h-.247l-3.662-11.975H36.5V37zm14.58 0h9.076v-2.696H54.18V30.71h4.718v-2.696H54.18v-3.595h5.976v-2.696H51.08V37zm10.222-15.277L64.2 37h4.56l1.82-11.143L72.467 37h4.56l2.898-15.277H76.87l-2.067 12.424h-.337l-2.18-12.2H68.94l-2.201 12.2h-.315l-2.067-12.424h-3.055zm34.058.292s-2.246-.561-4.268-.561c-3.527 0-5.167 1.415-5.167 4.717 0 2.292 1.28 3.393 4.246 4.359 2 .651 2.583.898 2.583 2.269 0 1.348-.651 1.775-2 1.775-1.347 0-4.313-.315-4.313-.315l-.157 2.494s2.449.517 4.47.517c3.528 0 5.145-1.438 5.145-4.74 0-2.921-1.123-3.64-4.11-4.696-2.202-.786-2.72-1.033-2.72-2.112 0-1.19.607-1.572 2.247-1.572 1.348 0 3.91.292 3.91.292l.134-2.427zm5.64-.292h-3.101V31.81c0 3.82 1.55 5.46 5.37 5.46 3.818 0 5.369-1.64 5.369-5.46V21.723h-3.1V32.08c0 1.775-.54 2.494-2.27 2.494s-2.269-.72-2.269-2.494V21.723zM116.521 32.8c3.19 0 5.167-1.393 5.167-5.662 0-3.909-1.842-5.414-5.19-5.414h-5.077V37h3.1v-4.201h2zm-2-2.696V24.42h1.753c1.46 0 2.224.472 2.224 2.606 0 2.449-.764 3.078-2.202 3.078h-1.774zm14.266 2.696c3.19 0 5.168-1.393 5.168-5.662 0-3.909-1.843-5.414-5.19-5.414h-5.077V37h3.1v-4.201h2zm-1.999-2.696V24.42h1.752c1.46 0 2.224.472 2.224 2.606 0 2.449-.763 3.078-2.201 3.078h-1.775zm14.378 4.47c-2.134 0-2.583-1.325-2.583-5.369 0-3.077.247-4.403 1.325-4.852.337-.135.764-.202 1.258-.202 2.134 0 2.584 1.01 2.584 5.054 0 3.056-.27 4.538-1.303 5.1-.337.18-.764.27-1.28.27zm0 2.697c1.28 0 2.314-.225 3.123-.674 1.91-1.056 2.65-3.415 2.65-7.392 0-5.661-1.504-7.75-5.773-7.75-1.393 0-2.471.224-3.325.719-1.752 1.01-2.449 3.212-2.449 7.031 0 5.662 1.506 8.066 5.774 8.066zm15.434-.27h3.235l-2.291-5.774c1.168-.651 1.977-1.887 1.977-4.47 0-3.752-1.842-5.033-5.1-5.033h-5.167V37h3.1v-5.1h2.337l1.91 5.1zm-.27-10.244c0 1.73-.561 2.493-1.909 2.493h-2.067v-4.875h2.067c1.348 0 1.91.652 1.91 2.382zm4.336-2.337h3.393V37h3.1V24.42h3.325v-2.697h-9.818v2.696zm15.21 0h3.392V37h3.1V24.42h3.325v-2.697h-9.817v2.696zM187.357 37h3.1V21.723h-3.1V37zm14.872-2.673s-2.291.247-3.37.247c-2.314 0-2.898-1.865-2.898-5.28 0-3.774.81-5.144 2.809-5.144 1.168 0 3.46.27 3.46.27l.134-2.427s-2.516-.54-4.111-.54c-3.864 0-5.482 2.247-5.482 7.841 0 5.055 1.101 7.976 5.482 7.976 1.91 0 4.089-.495 4.089-.495l-.113-2.448zM211.755 37h3.437l-3.257-7.886 3.077-7.39h-3.437l-2.359 6.38-1.64.18v-6.56h-3.1V37h3.1v-6.02l1.73-.18 2.449 6.2zm5.077 0h9.076v-2.696h-5.976V30.71h4.718v-2.696h-4.718v-3.595h5.976v-2.696h-9.076V37zm10.065-12.58h3.392V37h3.1V24.42h3.325v-2.697h-9.817v2.696z" fill="#0021FF"/></g></svg>
