<?xml version="1.0" encoding="UTF-8" standalone="no"?>
<svg width="301px" height="81px" viewBox="0 0 301 81" version="1.1" xmlns="http://www.w3.org/2000/svg" xmlns:xlink="http://www.w3.org/1999/xlink">
    <!-- Generator: Sketch 3.7.2 (28276) - http://www.bohemiancoding.com/sketch -->
    <title>Group 3</title>
    <desc>Created with Sketch.</desc>
    <defs>
        <rect id="path-1" x="0.857142857" y="0.877046154" width="280" height="60"></rect>
        <mask id="mask-2" maskContentUnits="userSpaceOnUse" maskUnits="objectBoundingBox" x="0" y="0" width="280" height="60" fill="white">
            <use xlink:href="#path-1"></use>
        </mask>
        <path d="M279.857143,0 L279.945514,0 L299.9958,20 L279.99608,20 L279.99608,10 L279.857143,10 L279.857143,-2.77555756e-17 Z M279.99608,20 L299.9958,20 L299.9958,80 L19.99972,80 L19.99972,79.9495606 L0,60 L9.99986,60 L279.99608,60 L279.99608,20 Z" id="path-3"></path>
    </defs>
    <g id="Welcome" stroke="none" stroke-width="1" fill="none" fill-rule="evenodd">
        <g id="Tablet-Portrait" transform="translate(-421.000000, -598.000000)">
            <g id="Group-3" transform="translate(421.000000, 598.000000)">
                <g id="Button">
                    <use id="Rectangle-9" stroke="#0021FF" mask="url(#mask-2)" stroke-width="8" fill="#FFFFFF" xlink:href="#path-1"></use>
                    <g id="Group-2" transform="translate(1.000000, 1.000000)">
                        <g id="Group">
                            <g>
                                <mask id="mask-4" fill="white">
                                    <use xlink:href="#path-3"></use>
                                </mask>
                                <g id="Combined-Shape"></g>
                                <g mask="url(#mask-4)" id="Line" stroke="#0021FF">
                                    <g transform="translate(-97.000000, -2.000000)">
                                        <path d="M0.5,0.5 L97.0323792,97.0323792"></path>
                                        <path d="M3.5,0.5 L100.032379,97.0323792"></path>
                                        <path d="M6.5,0.5 L103.032379,97.0323792"></path>
                                        <path d="M9.5,0.5 L106.032379,97.0323792"></path>
                                        <path d="M12.5,0.5 L109.032379,97.0323792"></path>
                                        <path d="M15.5,0.5 L112.032379,97.0323792"></path>
                                        <path d="M18.5,0.5 L115.032379,97.0323792"></path>
                                        <path d="M21.5,0.5 L118.032379,97.0323792"></path>
                                        <path d="M24.5,0.5 L121.032379,97.0323792"></path>
                                        <path d="M27.5,0.5 L124.032379,97.0323792"></path>
                                        <path d="M30.5,0.5 L127.032379,97.0323792"></path>
                                        <path d="M33.5,0.5 L130.032379,97.0323792"></path>
                                        <path d="M36.5,0.5 L133.032379,97.0323792"></path>
                                        <path d="M39.5,0.5 L136.032379,97.0323792"></path>
                                        <path d="M42.5,0.5 L139.032379,97.0323792"></path>
                                        <path d="M45.5,0.5 L142.032379,97.0323792"></path>
                                        <path d="M48.5,0.5 L145.032379,97.0323792"></path>
                                        <path d="M51.5,0.5 L148.032379,97.0323792"></path>
                                        <path d="M54.5,0.5 L151.032379,97.0323792"></path>
                                        <path d="M57.5,0.5 L154.032379,97.0323792"></path>
                                        <path d="M60.5,0.5 L157.032379,97.0323792"></path>
                                        <path d="M63.5,0.5 L160.032379,97.0323792"></path>
                                        <path d="M66.5,0.5 L163.032379,97.0323792"></path>
                                        <path d="M69.5,0.5 L166.032379,97.0323792"></path>
                                        <path d="M72.5,0.5 L169.032379,97.0323792"></path>
                                        <path d="M75.5,0.5 L172.032379,97.0323792"></path>
                                        <path d="M78.5,0.5 L175.032379,97.0323792"></path>
                                        <path d="M81.5,0.5 L178.032379,97.0323792"></path>
                                        <path d="M84.5,0.5 L181.032379,97.0323792"></path>
                                        <path d="M87.5,0.5 L184.032379,97.0323792"></path>
                                        <path d="M90.5,0.5 L187.032379,97.0323792"></path>
                                        <path d="M93.5,0.5 L190.032379,97.0323792"></path>
                                        <path d="M96.5,0.5 L193.032379,97.0323792"></path>
                                        <path d="M99.5,0.5 L196.032379,97.0323792"></path>
                                        <path d="M102.5,0.5 L199.032379,97.0323792"></path>
                                        <path d="M105.5,0.5 L202.032379,97.0323792"></path>
                                        <path d="M108.5,0.5 L205.032379,97.0323792"></path>
                                        <path d="M111.5,0.5 L208.032379,97.0323792"></path>
                                        <path d="M114.5,0.5 L211.032379,97.0323792"></path>
                                        <path d="M117.5,0.5 L214.032379,97.0323792"></path>
                                        <path d="M120.5,0.5 L217.032379,97.0323792"></path>
                                        <path d="M123.5,0.5 L220.032379,97.0323792"></path>
                                        <path d="M126.5,0.5 L223.032379,97.0323792"></path>
                                        <path d="M129.5,0.5 L226.032379,97.0323792"></path>
                                        <path d="M132.5,0.5 L229.032379,97.0323792"></path>
                                        <path d="M135.5,0.5 L232.032379,97.0323792"></path>
                                        <path d="M138.5,0.5 L235.032379,97.0323792"></path>
                                        <path d="M141.5,0.5 L238.032379,97.0323792"></path>
                                        <path d="M144.5,0.5 L241.032379,97.0323792"></path>
                                        <path d="M147.5,0.5 L244.032379,97.0323792"></path>
                                        <path d="M150.5,0.5 L247.032379,97.0323792"></path>
                                        <path d="M153.5,0.5 L250.032379,97.0323792"></path>
                                        <path d="M156.5,0.5 L253.032379,97.0323792"></path>
                                        <path d="M159.5,0.5 L256.032379,97.0323792"></path>
                                        <path d="M162.5,0.5 L259.032379,97.0323792"></path>
                                        <path d="M165.5,0.5 L262.032379,97.0323792"></path>
                                        <path d="M168.5,0.5 L265.032379,97.0323792"></path>
                                        <path d="M171.5,0.5 L268.032379,97.0323792"></path>
                                        <path d="M174.5,0.5 L271.032379,97.0323792"></path>
                                        <path d="M177.5,0.5 L274.032379,97.0323792"></path>
                                        <path d="M180.5,0.5 L277.032379,97.0323792"></path>
                                        <path d="M183.5,0.5 L280.032379,97.0323792"></path>
                                        <path d="M186.5,0.5 L283.032379,97.0323792"></path>
                                        <path d="M189.5,0.5 L286.032379,97.0323792"></path>
                                        <path d="M192.5,0.5 L289.032379,97.0323792"></path>
                                        <path d="M195.5,0.5 L292.032379,97.0323792"></path>
                                        <path d="M198.5,0.5 L295.032379,97.0323792"></path>
                                        <path d="M201.5,0.5 L298.032379,97.0323792"></path>
                                        <path d="M204.5,0.5 L301.032379,97.0323792"></path>
                                        <path d="M207.5,0.5 L304.032379,97.0323792"></path>
                                        <path d="M210.5,0.5 L307.032379,97.0323792"></path>
                                        <path d="M213.5,0.5 L310.032379,97.0323792"></path>
                                        <path d="M216.5,0.5 L313.032379,97.0323792"></path>
                                        <path d="M219.5,0.5 L316.032379,97.0323792"></path>
                                        <path d="M222.5,0.5 L319.032379,97.0323792"></path>
                                        <path d="M225.5,0.5 L322.032379,97.0323792"></path>
                                        <path d="M228.5,0.5 L325.032379,97.0323792"></path>
                                        <path d="M231.5,0.5 L328.032379,97.0323792"></path>
                                        <path d="M234.5,0.5 L331.032379,97.0323792"></path>
                                        <path d="M237.5,0.5 L334.032379,97.0323792"></path>
                                        <path d="M240.5,0.5 L337.032379,97.0323792"></path>
                                        <path d="M243.5,0.5 L340.032379,97.0323792"></path>
                                        <path d="M246.5,0.5 L343.032379,97.0323792"></path>
                                        <path d="M249.5,0.5 L346.032379,97.0323792"></path>
                                        <path d="M252.5,0.5 L349.032379,97.0323792"></path>
                                        <path d="M255.5,0.5 L352.032379,97.0323792"></path>
                                        <path d="M258.5,0.5 L355.032379,97.0323792"></path>
                                        <path d="M261.5,0.5 L358.032379,97.0323792"></path>
                                        <path d="M264.5,0.5 L361.032379,97.0323792"></path>
                                        <path d="M267.5,0.5 L364.032379,97.0323792"></path>
                                        <path d="M270.5,0.5 L367.032379,97.0323792"></path>
                                        <path d="M273.5,0.5 L370.032379,97.0323792"></path>
                                        <path d="M276.5,0.5 L373.032379,97.0323792"></path>
                                        <path d="M279.5,0.5 L376.032379,97.0323792"></path>
                                        <path d="M282.5,0.5 L379.032379,97.0323792"></path>
                                        <path d="M285.5,0.5 L382.032379,97.0323792"></path>
                                        <path d="M288.5,0.5 L385.032379,97.0323792"></path>
                                        <path d="M291.5,0.5 L388.032379,97.0323792"></path>
                                        <path d="M294.5,0.5 L391.032379,97.0323792"></path>
                                        <path d="M297.5,0.5 L394.032379,97.0323792"></path>
                                        <path d="M300.5,0.5 L397.032379,97.0323792"></path>
                                        <path d="M303.5,0.5 L400.032379,97.0323792"></path>
                                        <path d="M306.5,0.5 L403.032379,97.0323792"></path>
                                        <path d="M309.5,0.5 L406.032379,97.0323792"></path>
                                        <path d="M312.5,0.5 L409.032379,97.0323792"></path>
                                        <path d="M315.5,0.5 L412.032379,97.0323792"></path>
                                        <path d="M318.5,0.5 L415.032379,97.0323792"></path>
                                        <path d="M321.5,0.5 L418.032379,97.0323792"></path>
                                        <path d="M324.5,0.5 L421.032379,97.0323792"></path>
                                        <path d="M327.5,0.5 L424.032379,97.0323792"></path>
                                        <path d="M330.5,0.5 L427.032379,97.0323792"></path>
                                        <path d="M333.5,0.5 L430.032379,97.0323792"></path>
                                        <path d="M336.5,0.5 L433.032379,97.0323792"></path>
                                        <path d="M339.5,0.5 L436.032379,97.0323792"></path>
                                        <path d="M342.5,0.5 L439.032379,97.0323792"></path>
                                        <path d="M345.5,0.5 L442.032379,97.0323792"></path>
                                        <path d="M348.5,0.5 L445.032379,97.0323792"></path>
                                        <path d="M351.5,0.5 L448.032379,97.0323792"></path>
                                        <path d="M354.5,0.5 L451.032379,97.0323792"></path>
                                        <path d="M357.5,0.5 L454.032379,97.0323792"></path>
                                        <path d="M360.5,0.5 L457.032379,97.0323792"></path>
                                        <path d="M363.5,0.5 L460.032379,97.0323792"></path>
                                        <path d="M366.5,0.5 L463.032379,97.0323792"></path>
                                        <path d="M369.5,0.5 L466.032379,97.0323792"></path>
                                        <path d="M372.5,0.5 L469.032379,97.0323792"></path>
                                        <path d="M375.5,0.5 L472.032379,97.0323792"></path>
                                        <path d="M378.5,0.5 L475.032379,97.0323792"></path>
                                        <path d="M381.5,0.5 L478.032379,97.0323792"></path>
                                    </g>
                                </g>
                            </g>
                        </g>
                    </g>
                </g>
                <path d="M36.4987674,37 L39.5990542,37 L39.5990542,24.8010455 L39.8461785,24.8010455 L43.5305772,37 L48.2034732,37 L48.2034732,21.7232246 L45.2604474,21.7232246 L45.2604474,33.6975206 L45.0133231,33.6975206 L41.3513902,21.7232246 L36.4987674,21.7232246 L36.4987674,37 Z M51.0791015,37 L60.1553034,37 L60.1553034,34.3040985 L54.1793883,34.3040985 L54.1793883,30.7095631 L58.897216,30.7095631 L58.897216,28.0136615 L54.1793883,28.0136615 L54.1793883,24.4191262 L60.1553034,24.4191262 L60.1553034,21.7232246 L51.0791015,21.7232246 L51.0791015,37 Z M61.3010615,21.7232246 L64.1991557,37 L68.7597225,37 L70.579456,25.8569403 L72.4665871,37 L77.0271538,37 L79.925248,21.7232246 L76.8698929,21.7232246 L74.8030351,34.1468375 L74.4660474,34.1468375 L72.2868603,21.9478831 L68.9394492,21.9478831 L66.7377963,34.1468375 L66.4232745,34.1468375 L64.3564166,21.7232246 L61.3010615,21.7232246 Z M95.3592843,22.0152806 C95.3592843,22.0152806 93.1126997,21.4536345 91.0907735,21.4536345 C87.5636357,21.4536345 85.9236289,22.8689828 85.9236289,26.1714622 C85.9236289,28.4629785 87.2041822,29.5638049 90.1696738,30.5298363 C92.1691342,31.1813458 92.7532462,31.4284702 92.7532462,32.7988868 C92.7532462,34.1468375 92.1017366,34.5736886 90.7537858,34.5736886 C89.4058351,34.5736886 86.4403434,34.2591668 86.4403434,34.2591668 L86.2830825,36.7528757 C86.2830825,36.7528757 88.7318597,37.2695902 90.7537858,37.2695902 C94.2809237,37.2695902 95.8984646,35.831776 95.8984646,32.5292966 C95.8984646,29.6087366 94.7751723,28.8898295 91.7872148,27.8339348 C89.5855618,27.0476302 89.0688474,26.8005058 89.0688474,25.7221452 C89.0688474,24.5314554 89.6754252,24.149536 91.315432,24.149536 C92.6633828,24.149536 95.2244892,24.441592 95.2244892,24.441592 L95.3592843,22.0152806 Z M100.998212,21.7232246 L97.8979249,21.7232246 L97.8979249,31.8103895 C97.8979249,35.6295834 99.4480683,37.2695902 103.267262,37.2695902 C107.086456,37.2695902 108.636599,35.6295834 108.636599,31.8103895 L108.636599,21.7232246 L105.536313,21.7232246 L105.536313,32.0799797 C105.536313,33.8547815 104.997132,34.5736886 103.267262,34.5736886 C101.537392,34.5736886 100.998212,33.8547815 100.998212,32.0799797 L100.998212,21.7232246 Z M116.522111,32.7988868 C119.712262,32.7988868 121.689256,31.4060043 121.689256,27.1374935 C121.689256,23.2284363 119.847057,21.7232246 116.499646,21.7232246 L111.422364,21.7232246 L111.422364,37 L114.522651,37 L114.522651,32.7988868 L116.522111,32.7988868 Z M114.522651,30.1029852 L114.522651,24.4191262 L116.274987,24.4191262 C117.735267,24.4191262 118.499106,24.8909089 118.499106,27.0251643 C118.499106,29.4739415 117.735267,30.1029852 116.297453,30.1029852 L114.522651,30.1029852 Z M128.788463,32.7988868 C131.978614,32.7988868 133.955608,31.4060043 133.955608,27.1374935 C133.955608,23.2284363 132.113409,21.7232246 128.765998,21.7232246 L123.688716,21.7232246 L123.688716,37 L126.789003,37 L126.789003,32.7988868 L128.788463,32.7988868 Z M126.789003,30.1029852 L126.789003,24.4191262 L128.541339,24.4191262 C130.001619,24.4191262 130.765458,24.8909089 130.765458,27.0251643 C130.765458,29.4739415 130.001619,30.1029852 128.563805,30.1029852 L126.789003,30.1029852 Z M141.167145,34.5736886 C139.032889,34.5736886 138.583572,33.2482037 138.583572,29.2043514 C138.583572,26.1265305 138.830697,24.8010455 139.909057,24.3517286 C140.246045,24.2169335 140.672896,24.149536 141.167145,24.149536 C143.3014,24.149536 143.750717,25.1604991 143.750717,29.2043514 C143.750717,32.2597065 143.481127,33.7424523 142.447698,34.3040985 C142.11071,34.4838252 141.683859,34.5736886 141.167145,34.5736886 L141.167145,34.5736886 Z M141.167145,37.2695902 C142.447698,37.2695902 143.481127,37.0449317 144.289897,36.5956148 C146.199494,35.53972 146.940867,33.1808062 146.940867,29.2043514 C146.940867,23.5429582 145.435655,21.4536345 141.167145,21.4536345 C139.774262,21.4536345 138.695902,21.6782929 137.842199,22.1725415 C136.089863,23.1835046 135.393422,25.3851575 135.393422,29.2043514 C135.393422,34.8657446 136.898634,37.2695902 141.167145,37.2695902 L141.167145,37.2695902 Z M156.601181,37 L159.836263,37 L157.544746,31.2262775 C158.71297,30.574768 159.521741,29.3391465 159.521741,26.7555742 C159.521741,23.0037778 157.679542,21.7232246 154.421994,21.7232246 L149.254849,21.7232246 L149.254849,37 L152.355136,37 L152.355136,31.9002529 L154.691584,31.9002529 L156.601181,37 Z M156.331591,26.7555742 C156.331591,28.4854443 155.769945,29.2492831 154.421994,29.2492831 L152.355136,29.2492831 L152.355136,24.3741945 L154.421994,24.3741945 C155.769945,24.3741945 156.331591,25.025704 156.331591,26.7555742 L156.331591,26.7555742 Z M160.667499,24.4191262 L164.059842,24.4191262 L164.059842,37 L167.160129,37 L167.160129,24.4191262 L170.485074,24.4191262 L170.485074,21.7232246 L160.667499,21.7232246 L160.667499,24.4191262 Z M175.876877,24.4191262 L179.26922,24.4191262 L179.26922,37 L182.369506,37 L182.369506,24.4191262 L185.694452,24.4191262 L185.694452,21.7232246 L175.876877,21.7232246 L175.876877,24.4191262 Z M187.356924,37 L190.457211,37 L190.457211,21.7232246 L187.356924,21.7232246 L187.356924,37 Z M202.229314,34.3265643 C202.229314,34.3265643 199.937798,34.5736886 198.859438,34.5736886 C196.545455,34.5736886 195.961343,32.7090234 195.961343,29.2942148 C195.961343,25.5199526 196.770114,24.149536 198.769574,24.149536 C199.937798,24.149536 202.229314,24.4191262 202.229314,24.4191262 L202.36411,21.9928148 C202.36411,21.9928148 199.847935,21.4536345 198.25286,21.4536345 C194.388734,21.4536345 192.771193,23.7002191 192.771193,29.2942148 C192.771193,34.3490302 193.87202,37.2695902 198.25286,37.2695902 C200.162457,37.2695902 202.341644,36.7753415 202.341644,36.7753415 L202.229314,34.3265643 Z M211.754833,37 L215.192108,37 L211.93456,29.114488 L215.012381,21.7232246 L211.575106,21.7232246 L209.216193,28.1035249 L207.576186,28.2832517 L207.576186,21.7232246 L204.475899,21.7232246 L204.475899,37 L207.576186,37 L207.576186,30.9791532 L209.306056,30.7994265 L211.754833,37 Z M216.832114,37 L225.908316,37 L225.908316,34.3040985 L219.932401,34.3040985 L219.932401,30.7095631 L224.650229,30.7095631 L224.650229,28.0136615 L219.932401,28.0136615 L219.932401,24.4191262 L225.908316,24.4191262 L225.908316,21.7232246 L216.832114,21.7232246 L216.832114,37 Z M226.896814,24.4191262 L230.289156,24.4191262 L230.289156,37 L233.389443,37 L233.389443,24.4191262 L236.714388,24.4191262 L236.714388,21.7232246 L226.896814,21.7232246 L226.896814,24.4191262 Z" id="NEW-SUPPORT-TICKET" fill="#0021FF"></path>
            </g>
        </g>
    </g>
</svg>